<?xml version="1.0" encoding="utf-8"?>
<!-- Generator: Adobe Illustrator 19.1.0, SVG Export Plug-In . SVG Version: 6.00 Build 0)  -->
<svg version="1.1" id="Layer_1" xmlns="http://www.w3.org/2000/svg" xmlns:xlink="http://www.w3.org/1999/xlink" x="0px" y="0px"
	 viewBox="0 0 600 400" style="enable-background:new 0 0 600 400;" xml:space="preserve">
<style type="text/css">
	.st0{display:none;}
	.st1{display:inline;}
	.st2{fill:#3E3637;}
	.st3{fill:#71594C;}
	.st4{fill:#98A27A;}
	.st5{clip-path:url(#SVGID_2_);fill:#B5D5A9;}
	.st6{fill:#E8E8E8;}
	.st7{fill:#B5D5AB;}
	.st8{fill:#F0E6B1;}
	.st9{clip-path:url(#SVGID_4_);fill:#948F83;}
</style>
<g class="st0">
	<g class="st1">
		<g>
			<path class="st2" d="M21.1,223.9v37.4c3.4-3.4,7.1-5.9,11.1-7.6c4-1.7,8.2-2.5,12.7-2.5c9.8,0,18.2,3.7,25.1,11.1
				s10.3,17,10.3,28.6c0,11.2-3.6,20.6-10.7,28.1c-7.1,7.5-15.5,11.3-25.3,11.3c-4.3,0-8.4-0.8-12.1-2.3c-3.7-1.5-7.5-4.1-11.2-7.5
				v8H2.2V223.9H21.1z M40.9,268.4c-5.9,0-10.9,2-14.8,6.1c-3.9,4.1-5.9,9.4-5.9,16c0,6.7,2,12.2,5.9,16.3s8.8,6.2,14.8,6.2
				c5.8,0,10.6-2.1,14.5-6.3c3.9-4.2,5.9-9.6,5.9-16.1c0-6.5-1.9-11.8-5.8-16C51.7,270.5,46.8,268.4,40.9,268.4z"/>
			<path class="st2" d="M145.7,253h18.9v75.5h-18.9v-8c-3.7,3.5-7.4,6-11.1,7.5s-7.8,2.3-12.1,2.3c-9.8,0-18.2-3.8-25.3-11.3
				c-7.1-7.5-10.7-16.9-10.7-28.1c0-11.6,3.4-21.2,10.3-28.6c6.9-7.4,15.3-11.1,25.1-11.1c4.5,0,8.8,0.8,12.8,2.5
				c4,1.7,7.7,4.2,11,7.6V253z M125.8,268.4c-5.9,0-10.7,2.1-14.6,6.2c-3.9,4.1-5.8,9.5-5.8,16c0,6.5,2,11.9,5.9,16.1
				c3.9,4.2,8.8,6.3,14.5,6.3c5.9,0,10.9-2.1,14.8-6.2s5.9-9.6,5.9-16.3c0-6.6-2-11.9-5.9-16C136.8,270.5,131.8,268.4,125.8,268.4z"
				/>
			<path class="st2" d="M176.4,253h16.4v9.6c1.7-3.7,4.1-6.6,7-8.5c2.9-1.9,6.1-2.9,9.5-2.9c2.4,0,5,0.6,7.7,1.9l-5.9,16.3
				c-2.2-1.1-4-1.7-5.5-1.7c-2.9,0-5.4,1.8-7.4,5.4c-2,3.6-3,10.7-3,21.2l0.1,3.7v30.5h-18.9V253z"/>
			<path class="st3" d="M291.4,268.7l-7.7,4.8c-6.7-8.8-15.8-13.2-27.3-13.2c-9.2,0-16.9,2.9-22.9,8.8c-6.1,5.9-9.1,13.1-9.1,21.5
				c0,5.5,1.4,10.6,4.2,15.5c2.8,4.8,6.6,8.6,11.5,11.3c4.9,2.7,10.4,4,16.4,4c11.1,0,20.2-4.4,27.2-13.2l7.7,5.1
				c-3.6,5.4-8.5,9.6-14.5,12.6c-6.1,3-13,4.5-20.8,4.5c-11.9,0-21.8-3.8-29.7-11.4c-7.9-7.6-11.8-16.8-11.8-27.6
				c0-7.3,1.8-14.1,5.5-20.3c3.7-6.3,8.7-11.1,15.2-14.6c6.4-3.5,13.6-5.3,21.6-5.3c5,0,9.8,0.8,14.5,2.3c4.7,1.5,8.6,3.5,11.8,5.9
				C286.3,261.8,289.1,264.9,291.4,268.7z"/>
			<path class="st3" d="M375.7,253v75.5H366v-13c-4.1,4.9-8.6,8.7-13.7,11.1c-5.1,2.5-10.6,3.7-16.6,3.7c-10.7,0-19.8-3.9-27.3-11.6
				c-7.6-7.7-11.3-17.1-11.3-28.2c0-10.8,3.8-20.1,11.4-27.8c7.6-7.7,16.8-11.6,27.5-11.6c6.2,0,11.8,1.3,16.8,3.9
				c5,2.6,9.4,6.6,13.2,11.8V253H375.7z M336.8,260.5c-5.4,0-10.4,1.3-14.9,4c-4.6,2.6-8.2,6.4-10.9,11.2c-2.7,4.8-4,9.9-4,15.2
				c0,5.3,1.4,10.4,4.1,15.2c2.7,4.8,6.4,8.6,11,11.3c4.6,2.7,9.5,4,14.8,4c5.3,0,10.3-1.3,15.1-4c4.7-2.7,8.4-6.3,11-10.8
				c2.6-4.6,3.8-9.7,3.8-15.4c0-8.7-2.9-16-8.6-21.8C352.3,263.4,345.2,260.5,336.8,260.5z"/>
			<path class="st3" d="M391.4,253h9.7v13c3.4-4.8,6.9-8.3,10.4-10.5c4.9-2.9,10.1-4.4,15.5-4.4c3.7,0,7.1,0.7,10.4,2.1
				c3.3,1.4,6,3.3,8.1,5.7c2.1,2.4,3.9,5.8,5.4,10.2c3.2-5.9,7.3-10.4,12.1-13.5c4.8-3.1,10.1-4.6,15.7-4.6c5.2,0,9.8,1.3,13.8,3.9
				c4,2.6,7,6.3,8.9,11c1.9,4.7,2.9,11.8,2.9,21.2v41.2h-9.9v-41.1c0-8.1-0.6-13.6-1.7-16.7c-1.2-3-3.1-5.5-5.9-7.3
				c-2.8-1.8-6.1-2.8-10-2.8c-4.7,0-9,1.4-12.9,4.2c-3.9,2.8-6.8,6.5-8.6,11.1c-1.8,4.6-2.7,12.3-2.7,23.1v29.5h-9.7v-38.6
				c0-9.1-0.6-15.3-1.7-18.5c-1.1-3.3-3.1-5.9-5.9-7.8c-2.8-2-6.2-2.9-10.1-2.9c-4.5,0-8.7,1.4-12.6,4.1c-3.9,2.7-6.8,6.3-8.7,10.9
				c-1.9,4.6-2.8,11.6-2.8,21v31.9h-9.7V253z"/>
			<path class="st3" d="M519.4,253h9.7v13.9c3.8-5.3,8.2-9.2,13.2-11.8c5-2.6,10.5-3.9,16.7-3.9c10.7,0,19.9,3.9,27.5,11.6
				c7.6,7.7,11.4,17,11.4,27.8c0,11.1-3.8,20.5-11.3,28.2c-7.5,7.7-16.6,11.6-27.3,11.6c-6,0-11.5-1.2-16.5-3.7
				c-5-2.5-9.6-6.2-13.6-11.2V356h-9.7V253z M558.2,260.5c-8.4,0-15.4,2.9-21.2,8.8c-5.7,5.8-8.6,13.1-8.6,21.8
				c0,5.7,1.3,10.8,3.8,15.4c2.6,4.6,6.2,8.2,11,10.8c4.8,2.7,9.8,4,15.1,4c5.2,0,10.1-1.3,14.7-4c4.6-2.7,8.2-6.5,10.9-11.3
				c2.7-4.8,4.1-9.9,4.1-15.2c0-5.3-1.3-10.4-4-15.2c-2.7-4.8-6.3-8.5-10.9-11.2C568.6,261.8,563.6,260.5,558.2,260.5z"/>
		</g>
	</g>
	<g class="st1">
		<g>
			<path class="st2" d="M197.9,356h4.1c1.7,0,2.9,0.2,3.8,0.6c0.9,0.4,1.6,1,2.1,1.8c0.5,0.8,0.8,1.7,0.8,2.7c0,0.9-0.2,1.8-0.7,2.5
				c-0.5,0.8-1.1,1.4-2,1.9c1.1,0.4,1.9,0.8,2.5,1.3c0.6,0.5,1,1.1,1.4,1.8c0.3,0.7,0.5,1.5,0.5,2.3c0,1.7-0.6,3.1-1.8,4.3
				s-2.9,1.7-5,1.7h-5.8V356z M200,358.1v6.7h1.2c1.5,0,2.5-0.1,3.2-0.4c0.7-0.3,1.2-0.7,1.6-1.3c0.4-0.6,0.6-1.2,0.6-1.9
				c0-1-0.3-1.7-1-2.3c-0.7-0.5-1.7-0.8-3.2-0.8H200z M200,366.9v8h2.6c1.5,0,2.7-0.1,3.4-0.4c0.7-0.3,1.3-0.8,1.7-1.4
				s0.6-1.3,0.6-2.1c0-0.9-0.3-1.7-0.9-2.4c-0.6-0.7-1.4-1.2-2.5-1.4c-0.7-0.2-2-0.3-3.7-0.3H200z"/>
			<path class="st2" d="M229.8,356l9.8,21h-2.3l-3.3-6.9h-9l-3.3,6.9h-2.3l9.9-21H229.8z M229.6,360.5l-3.6,7.6h7.2L229.6,360.5z"/>
			<path class="st2" d="M250,377v-21h0.5l14,16.1V356h2.1v21H266l-13.8-15.9V377H250z"/>
			<path class="st2" d="M299,359.5l-1.6,1.5c-1.2-1.2-2.4-2-3.8-2.6c-1.4-0.6-2.7-0.9-4.1-0.9c-1.6,0-3.2,0.4-4.7,1.2
				c-1.5,0.8-2.6,1.9-3.5,3.3c-0.8,1.4-1.2,2.8-1.2,4.4c0,1.6,0.4,3.1,1.3,4.5c0.8,1.4,2,2.5,3.5,3.3c1.5,0.8,3.1,1.2,4.9,1.2
				c2.2,0,4-0.6,5.5-1.8c1.5-1.2,2.4-2.8,2.7-4.7h-6.7v-2h9c0,3.2-1,5.8-2.9,7.7c-1.9,1.9-4.5,2.9-7.6,2.9c-3.9,0-6.9-1.3-9.2-4
				c-1.7-2-2.6-4.4-2.6-7.1c0-2,0.5-3.8,1.5-5.5c1-1.7,2.4-3,4.1-4c1.7-1,3.7-1.4,5.9-1.4c1.8,0,3.4,0.3,5,1
				C296,357.1,297.5,358.1,299,359.5z"/>
			<path class="st2" d="M311.5,356h2.1v7.9l8.4-7.9h2.8l-10.1,9.4l10.9,11.6h-2.8l-9.2-9.8v9.8h-2.1V356z"/>
			<path class="st2" d="M335.9,356h2.1v8.8h10.7V356h2.1v21h-2.1v-10.1H338V377h-2.1V356z"/>
			<path class="st2" d="M363.3,356h12v2.1h-9.9v6.6h9.8v2.1h-9.8v8.2h9.8v2.1h-11.9V356z"/>
			<path class="st2" d="M386.5,377v-21h0.5l14,16.1V356h2.1v21h-0.5l-13.8-15.9V377H386.5z"/>
		</g>
	</g>
	<g class="st1">
		<path class="st4" d="M172.3,91.6c13.3,1.4,23-15.6,23.1-27.1c0.1-15.5-17.2-22.4-29.9-25.2c7.8-7.1,19.9-16,30.9-12.2
			c10.9,3.7,17.4,15.3,23.9,24c5.8,7.8,17,19.8,28,13c4-3.2,0.8-9.4-2.2-14.6c-2.9-5.2-6.1-10.5-10.1-15
			c118.9,35.3,0.2,260.6-95.3,167.3c-6.9-6.7-12.9-14.3-18.4-22.2c10.1,6.6,22,11.7,34.2,9.4c10.4-1.9,20.9-12.1,10.5-21.4
			c-9.3-8.4-24.5-8.2-35.5-13c-13.9-6.1-25.4-11.9-27.3-26.5c6.2,2.4,11.6,3.4,14.8,2.9c5.5-0.7,11.6-2.6,14.7-7.6
			c6-9.4,3.5-22.7-2.7-31.5c-2.9-4-7.1-7.3-12-8.3c-6.3-1.3-10.4,2.5-16.2,4c-5.6,1.5-10.5,2.2-16.2,0.4
			c-6.6-2.2-10.8-8.2-13.4-14.3c-1.5-3.3-2.3-6.9-3.3-10.3c8.9,6.6,20.3,16,31.8,8.3c9.2-6.2,9.2-19,18.8-25.2
			c12.3-7.9,23.1,9.4,28.4,18C154.8,74.5,157.7,90.1,172.3,91.6z"/>
	</g>
	<g class="st1">
		<defs>
			<path id="SVGID_1_" d="M98.9,69.6c0,0,45.6,88.9,145.8,129.3c102.8,41.4,55.6-171.2,55.6-171.2L98.9,9.6V69.6z"/>
		</defs>
		<clipPath id="SVGID_2_">
			<use xlink:href="#SVGID_1_"  style="overflow:visible;"/>
		</clipPath>
		<path class="st5" d="M172.3,91.6c13.3,1.4,23-15.6,23.1-27.1c0.1-15.5-17.2-22.4-29.9-25.2c7.8-7.1,19.9-16,30.9-12.2
			c10.9,3.7,17.4,15.3,23.9,24c5.8,7.8,17,19.8,28,13c4-3.2,0.8-9.4-2.2-14.6c-2.9-5.2-6.1-10.5-10.1-15
			c118.9,35.3,0.2,260.6-95.3,167.3c-6.9-6.7-12.9-14.3-18.4-22.2c10.1,6.6,22,11.7,34.2,9.4c10.4-1.9,20.9-12.1,10.5-21.4
			c-9.3-8.4-24.5-8.2-35.5-13c-13.9-6.1-25.4-11.9-27.3-26.5c6.2,2.4,11.6,3.4,14.8,2.9c5.5-0.7,11.6-2.6,14.7-7.6
			c6-9.4,3.5-22.7-2.7-31.5c-2.9-4-7.1-7.3-12-8.3c-6.3-1.3-10.4,2.5-16.2,4c-5.6,1.5-10.5,2.2-16.2,0.4
			c-6.6-2.2-10.8-8.2-13.4-14.3c-1.5-3.3-2.3-6.9-3.3-10.3c8.9,6.6,20.3,16,31.8,8.3c9.2-6.2,9.2-19,18.8-25.2
			c12.3-7.9,23.1,9.4,28.4,18C154.8,74.5,157.7,90.1,172.3,91.6z"/>
	</g>
	<g class="st1">
		<path class="st4" d="M466.3,101c-22.9,0.3-42.7,15.3-49.4,37.3c-6.7,21.8,0.4,46,17.8,60.6c17.5,14.7,43.7,17.7,63,4.6
			c19-12.9,27.6-37.2,22.1-59.3c-6.2-25.1-28.8-42.9-54.6-43.2c-2.2,0-2.2-1.8-1.2-3.2c1.4-1.8,4.4-2.4,6.5-2.4
			c25.5,0.3,49.1,16.4,57.2,40.9c8.2,24.6-1,51.7-21.4,67.4c-20.4,15.6-49.3,18.4-71.7,5.4c-22.6-13.1-34.2-40.3-28-65.7
			c7-28.4,34-47.7,62.8-48.1C475.9,95.4,469.9,101,466.3,101z"/>
		<path class="st4" d="M275.4,102.3c-22.6,0.3-43.3,13.6-50.3,35.5c-6.9,21.8,1.1,46.1,18.8,60.3c17.7,14.2,43.6,16.7,63.3,4.8
			c19.6-11.9,28.5-35.9,22.8-58C323.5,120.3,300.8,102.6,275.4,102.3c-4.7-0.1,0.2-8.2,3.5-8.2c25.8,0.3,49.3,16.5,57.3,41.4
			c7.9,24.7-1.1,52.3-21,68.6c-20.1,16.5-48.8,19.6-71.3,5.9c-22.1-13.4-32.9-40.4-27-65.5c6.7-28.5,32.7-50.1,62.1-50.4
			C283.5,94.1,278.6,102.3,275.4,102.3z"/>
		<path class="st4" d="M431.9,63.5c-32.2,0-64.3,0-96.5,0c-4.5,0-9,0-13.5,0c0.7-0.4,1.4-0.8,2.1-1.1c-12.4,28-24.8,56-37.2,84.1
			c-1.8,4-3.6,8.1-5.4,12.1c-2.2-1.8-4.5-3.6-6.7-5.3c27.1,0,54.1,0,81.2,0c0.5,0,1.4-0.2,1.8,0c1.3,0.5-1.1-0.4-1.1,0.5
			c0-0.5,1.8-1.9,2.1-2.2c3.9-4.1,7.7-8.2,11.6-12.3c12.2-12.9,24.3-25.8,36.5-38.8c8.4-8.9,16.8-17.9,25.2-26.8
			c-0.2,0.7-0.3,1.4-0.5,2.1c-2.1-5.4-4.3-10.7-6.4-16.1c-1.7-4.4,7.6-2.1,8.8,1.1c2.1,5.4,4.3,10.7,6.4,16.1
			c0.3,0.8,0.1,1.5-0.5,2.1c-19.5,20.7-38.9,41.4-58.4,62c-4.4,4.7-8.8,9.4-13.2,14c-1.7,1.8-3.2,4.2-5.8,4.6c-4.5,0.6-9.5,0-14,0
			c-8.7,0-17.3,0-26,0c-14.4,0-28.8,0-43.2,0c-2.2,0-8.1-2.1-6.7-5.3c12.4-28,24.8-56,37.2-84.1c1.8-4,3.6-8.1,5.4-12.1
			c0.3-0.7,1.4-1.1,2.1-1.1c32.2,0,64.3,0,96.5,0c4.5,0,9,0,13.5,0c2.2,0,5.1,0.9,6.3,3C434.5,61.6,434.2,63.5,431.9,63.5z"/>
		<path class="st4" d="M462.3,156.4c-8-20.1-16-40.2-24-60.2c-4.2-10.6-8.4-21.2-12.6-31.8c-1.7-4.3-3.4-8.6-5.7-12.3
			c-9.3-15.2-24.2-23.6-42.1-23.8c-2.7,0-6.4-1.7-7.2-4.5c-0.8-2.8,1.6-4.2,4.1-4.2c27.1,0.3,50.9,16.2,60.8,41.4
			C444.6,84,453.8,107,463,130c3.5,8.9,7,17.7,10.6,26.6C475.9,162.6,464.1,161,462.3,156.4L462.3,156.4z"/>
		<path class="st4" d="M355.8,157.4c-13.3-31.2-26.6-62.4-39.9-93.5c-2.5-5.9-5-11.7-7.6-17.5c-0.8-1.8,8.5-4.5,9.6-1.9
			c13.7,31.8,27.2,63.7,40.8,95.5c2.2,5.2,4.4,10.4,6.6,15.5C366.2,157.3,356.9,160,355.8,157.4L355.8,157.4z"/>
		<path class="st4" d="M345.7,48.5c-20.1,0-40.1,0-60.2,0c-2.4,0-6.6-0.5-7.9-2.9c-1.2-2.3,0.9-3.4,3-3.4c20.1,0,40.1,0,60.2,0
			c2.4,0,6.6,0.5,7.9,2.9C350,47.4,347.9,48.5,345.7,48.5L345.7,48.5z"/>
	</g>
</g>
<g>
	<g>
		<g>
			<path class="st6" d="M21.1,223.9v37.4c3.4-3.4,7.1-5.9,11.1-7.6c4-1.7,8.2-2.5,12.7-2.5c9.8,0,18.2,3.7,25.1,11.1
				s10.3,17,10.3,28.6c0,11.2-3.6,20.6-10.7,28.1c-7.1,7.5-15.5,11.3-25.3,11.3c-4.3,0-8.4-0.8-12.1-2.3c-3.7-1.5-7.5-4.1-11.2-7.5
				v8H2.2V223.9H21.1z M40.9,268.4c-5.9,0-10.9,2-14.8,6.1c-3.9,4.1-5.9,9.4-5.9,16c0,6.7,2,12.2,5.9,16.3s8.8,6.2,14.8,6.2
				c5.8,0,10.6-2.1,14.5-6.3c3.9-4.2,5.9-9.6,5.9-16.1c0-6.5-1.9-11.8-5.8-16C51.7,270.5,46.8,268.4,40.9,268.4z"/>
			<path class="st6" d="M145.7,253h18.9v75.5h-18.9v-8c-3.7,3.5-7.4,6-11.1,7.5s-7.8,2.3-12.1,2.3c-9.8,0-18.2-3.8-25.3-11.3
				c-7.1-7.5-10.7-16.9-10.7-28.1c0-11.6,3.4-21.2,10.3-28.6c6.9-7.4,15.3-11.1,25.1-11.1c4.5,0,8.8,0.8,12.8,2.5
				c4,1.7,7.7,4.2,11,7.6V253z M125.8,268.4c-5.9,0-10.7,2.1-14.6,6.2c-3.9,4.1-5.8,9.5-5.8,16c0,6.5,2,11.9,5.9,16.1
				c3.9,4.2,8.8,6.3,14.5,6.3c5.9,0,10.9-2.1,14.8-6.2s5.9-9.6,5.9-16.3c0-6.6-2-11.9-5.9-16C136.8,270.5,131.8,268.4,125.8,268.4z"
				/>
			<path class="st6" d="M176.4,253h16.4v9.6c1.7-3.7,4.1-6.6,7-8.5c2.9-1.9,6.1-2.9,9.5-2.9c2.4,0,5,0.6,7.7,1.9l-5.9,16.3
				c-2.2-1.1-4-1.7-5.5-1.7c-2.9,0-5.4,1.8-7.4,5.4c-2,3.6-3,10.7-3,21.2l0.1,3.7v30.5h-18.9V253z"/>
			<path class="st7" d="M291.4,268.7l-7.7,4.8c-6.7-8.8-15.8-13.2-27.3-13.2c-9.2,0-16.9,2.9-22.9,8.8c-6.1,5.9-9.1,13.1-9.1,21.5
				c0,5.5,1.4,10.6,4.2,15.5c2.8,4.8,6.6,8.6,11.5,11.3c4.9,2.7,10.4,4,16.4,4c11.1,0,20.2-4.4,27.2-13.2l7.7,5.1
				c-3.6,5.4-8.5,9.6-14.5,12.6c-6.1,3-13,4.5-20.8,4.5c-11.9,0-21.8-3.8-29.7-11.4c-7.9-7.6-11.8-16.8-11.8-27.6
				c0-7.3,1.8-14.1,5.5-20.3c3.7-6.3,8.7-11.1,15.2-14.6c6.4-3.5,13.6-5.3,21.6-5.3c5,0,9.8,0.8,14.5,2.3c4.7,1.5,8.6,3.5,11.8,5.9
				C286.3,261.8,289.1,264.9,291.4,268.7z"/>
			<path class="st7" d="M375.7,253v75.5H366v-13c-4.1,4.9-8.6,8.7-13.7,11.1c-5.1,2.5-10.6,3.7-16.6,3.7c-10.7,0-19.8-3.9-27.3-11.6
				c-7.6-7.7-11.3-17.1-11.3-28.2c0-10.8,3.8-20.1,11.4-27.8c7.6-7.7,16.8-11.6,27.5-11.6c6.2,0,11.8,1.3,16.8,3.9
				c5,2.6,9.4,6.6,13.2,11.8V253H375.7z M336.8,260.5c-5.4,0-10.4,1.3-14.9,4c-4.6,2.6-8.2,6.4-10.9,11.2c-2.7,4.8-4,9.9-4,15.2
				c0,5.3,1.4,10.4,4.1,15.2c2.7,4.8,6.4,8.6,11,11.3c4.6,2.7,9.5,4,14.8,4c5.3,0,10.3-1.3,15.1-4c4.7-2.7,8.4-6.3,11-10.8
				c2.6-4.6,3.8-9.7,3.8-15.4c0-8.7-2.9-16-8.6-21.8C352.3,263.4,345.2,260.5,336.8,260.5z"/>
			<path class="st7" d="M391.4,253h9.7v13c3.4-4.8,6.9-8.3,10.4-10.5c4.9-2.9,10.1-4.4,15.5-4.4c3.7,0,7.1,0.7,10.4,2.1
				c3.3,1.4,6,3.3,8.1,5.7c2.1,2.4,3.9,5.8,5.4,10.2c3.2-5.9,7.3-10.4,12.1-13.5c4.8-3.1,10.1-4.6,15.7-4.6c5.2,0,9.8,1.3,13.8,3.9
				c4,2.6,7,6.3,8.9,11c1.9,4.7,2.9,11.8,2.9,21.2v41.2h-9.9v-41.1c0-8.1-0.6-13.6-1.7-16.7c-1.2-3-3.1-5.5-5.9-7.3
				c-2.8-1.8-6.1-2.8-10-2.8c-4.7,0-9,1.4-12.9,4.2c-3.9,2.8-6.8,6.5-8.6,11.1c-1.8,4.6-2.7,12.3-2.7,23.1v29.5h-9.7v-38.6
				c0-9.1-0.6-15.3-1.7-18.5c-1.1-3.3-3.1-5.9-5.9-7.8c-2.8-2-6.2-2.9-10.1-2.9c-4.5,0-8.7,1.4-12.6,4.1c-3.9,2.7-6.8,6.3-8.7,10.9
				c-1.9,4.6-2.8,11.6-2.8,21v31.9h-9.7V253z"/>
			<path class="st7" d="M519.4,253h9.7v13.9c3.8-5.3,8.2-9.2,13.2-11.8c5-2.6,10.5-3.9,16.7-3.9c10.7,0,19.9,3.9,27.5,11.6
				c7.6,7.7,11.4,17,11.4,27.8c0,11.1-3.8,20.5-11.3,28.2c-7.5,7.7-16.6,11.6-27.3,11.6c-6,0-11.5-1.2-16.5-3.7
				c-5-2.5-9.6-6.2-13.6-11.2V356h-9.7V253z M558.2,260.5c-8.4,0-15.4,2.9-21.2,8.8c-5.7,5.8-8.6,13.1-8.6,21.8
				c0,5.7,1.3,10.8,3.8,15.4c2.6,4.6,6.2,8.2,11,10.8c4.8,2.7,9.8,4,15.1,4c5.2,0,10.1-1.3,14.7-4c4.6-2.7,8.2-6.5,10.9-11.3
				c2.7-4.8,4.1-9.9,4.1-15.2c0-5.3-1.3-10.4-4-15.2c-2.7-4.8-6.3-8.5-10.9-11.2C568.6,261.8,563.6,260.5,558.2,260.5z"/>
		</g>
	</g>
	<g>
		<g>
			<path class="st4" d="M197.9,356h4.1c1.7,0,2.9,0.2,3.8,0.6c0.9,0.4,1.6,1,2.1,1.8c0.5,0.8,0.8,1.7,0.8,2.7c0,0.9-0.2,1.8-0.7,2.5
				c-0.5,0.8-1.1,1.4-2,1.9c1.1,0.4,1.9,0.8,2.5,1.3c0.6,0.5,1,1.1,1.4,1.8c0.3,0.7,0.5,1.5,0.5,2.3c0,1.7-0.6,3.1-1.8,4.3
				s-2.9,1.7-5,1.7h-5.8V356z M200,358.1v6.7h1.2c1.5,0,2.5-0.1,3.2-0.4c0.7-0.3,1.2-0.7,1.6-1.3c0.4-0.6,0.6-1.2,0.6-1.9
				c0-1-0.3-1.7-1-2.3c-0.7-0.5-1.7-0.8-3.2-0.8H200z M200,366.9v8h2.6c1.5,0,2.7-0.1,3.4-0.4c0.7-0.3,1.3-0.8,1.7-1.4
				s0.6-1.3,0.6-2.1c0-0.9-0.3-1.7-0.9-2.4c-0.6-0.7-1.4-1.2-2.5-1.4c-0.7-0.2-2-0.3-3.7-0.3H200z"/>
			<path class="st4" d="M229.8,356l9.8,21h-2.3l-3.3-6.9h-9l-3.3,6.9h-2.3l9.9-21H229.8z M229.6,360.5l-3.6,7.6h7.2L229.6,360.5z"/>
			<path class="st4" d="M250,377v-21h0.5l14,16.1V356h2.1v21H266l-13.8-15.9V377H250z"/>
			<path class="st4" d="M299,359.5l-1.6,1.5c-1.2-1.2-2.4-2-3.8-2.6c-1.4-0.6-2.7-0.9-4.1-0.9c-1.6,0-3.2,0.4-4.7,1.2
				c-1.5,0.8-2.6,1.9-3.5,3.3c-0.8,1.4-1.2,2.8-1.2,4.4c0,1.6,0.4,3.1,1.3,4.5c0.8,1.4,2,2.5,3.5,3.3c1.5,0.8,3.1,1.2,4.9,1.2
				c2.2,0,4-0.6,5.5-1.8c1.5-1.2,2.4-2.8,2.7-4.7h-6.7v-2h9c0,3.2-1,5.8-2.9,7.7c-1.9,1.9-4.5,2.9-7.6,2.9c-3.9,0-6.9-1.3-9.2-4
				c-1.7-2-2.6-4.4-2.6-7.1c0-2,0.5-3.8,1.5-5.5c1-1.7,2.4-3,4.1-4c1.7-1,3.7-1.4,5.9-1.4c1.8,0,3.4,0.3,5,1
				C296,357.1,297.5,358.1,299,359.5z"/>
			<path class="st4" d="M311.5,356h2.1v7.9l8.4-7.9h2.8l-10.1,9.4l10.9,11.6h-2.8l-9.2-9.8v9.8h-2.1V356z"/>
			<path class="st4" d="M335.9,356h2.1v8.8h10.7V356h2.1v21h-2.1v-10.1H338V377h-2.1V356z"/>
			<path class="st4" d="M363.3,356h12v2.1h-9.9v6.6h9.8v2.1h-9.8v8.2h9.8v2.1h-11.9V356z"/>
			<path class="st4" d="M386.5,377v-21h0.5l14,16.1V356h2.1v21h-0.5l-13.8-15.9V377H386.5z"/>
		</g>
	</g>
	<g>
		<path class="st8" d="M172.3,91.6c13.3,1.4,23-15.6,23.1-27.1c0.1-15.5-17.2-22.4-29.9-25.2c7.8-7.1,19.9-16,30.9-12.2
			c10.9,3.7,17.4,15.3,23.9,24c5.8,7.8,17,19.8,28,13c4-3.2,0.8-9.4-2.2-14.6c-2.9-5.2-6.1-10.5-10.1-15
			c118.9,35.3,0.2,260.6-95.3,167.3c-6.9-6.7-12.9-14.3-18.4-22.2c10.1,6.6,22,11.7,34.2,9.4c10.4-1.9,20.9-12.1,10.5-21.4
			c-9.3-8.4-24.5-8.2-35.5-13c-13.9-6.1-25.4-11.9-27.3-26.5c6.2,2.4,11.6,3.4,14.8,2.9c5.5-0.7,11.6-2.6,14.7-7.6
			c6-9.4,3.5-22.7-2.7-31.5c-2.9-4-7.1-7.3-12-8.3c-6.3-1.3-10.4,2.5-16.2,4c-5.6,1.5-10.5,2.2-16.2,0.4
			c-6.6-2.2-10.8-8.2-13.4-14.3c-1.5-3.3-2.3-6.9-3.3-10.3c8.9,6.6,20.3,16,31.8,8.3c9.2-6.2,9.2-19,18.8-25.2
			c12.3-7.9,23.1,9.4,28.4,18C154.8,74.5,157.7,90.1,172.3,91.6z"/>
	</g>
	<g>
		<defs>
			<path id="SVGID_3_" d="M98.9,69.6c0,0,45.6,88.9,145.8,129.3c102.8,41.4,55.6-171.2,55.6-171.2L98.9,9.6V69.6z"/>
		</defs>
		<clipPath id="SVGID_4_">
			<use xlink:href="#SVGID_3_"  style="overflow:visible;"/>
		</clipPath>
		<path class="st9" d="M172.3,91.6c13.3,1.4,23-15.6,23.1-27.1c0.1-15.5-17.2-22.4-29.9-25.2c7.8-7.1,19.9-16,30.9-12.2
			c10.9,3.7,17.4,15.3,23.9,24c5.8,7.8,17,19.8,28,13c4-3.2,0.8-9.4-2.2-14.6c-2.9-5.2-6.1-10.5-10.1-15
			c118.9,35.3,0.2,260.6-95.3,167.3c-6.9-6.7-12.9-14.3-18.4-22.2c10.1,6.6,22,11.7,34.2,9.4c10.4-1.9,20.9-12.1,10.5-21.4
			c-9.3-8.4-24.5-8.2-35.5-13c-13.9-6.1-25.4-11.9-27.3-26.5c6.2,2.4,11.6,3.4,14.8,2.9c5.5-0.7,11.6-2.6,14.7-7.6
			c6-9.4,3.5-22.7-2.7-31.5c-2.9-4-7.1-7.3-12-8.3c-6.3-1.3-10.4,2.5-16.2,4c-5.6,1.5-10.5,2.2-16.2,0.4
			c-6.6-2.2-10.8-8.2-13.4-14.3c-1.5-3.3-2.3-6.9-3.3-10.3c8.9,6.6,20.3,16,31.8,8.3c9.2-6.2,9.2-19,18.8-25.2
			c12.3-7.9,23.1,9.4,28.4,18C154.8,74.5,157.7,90.1,172.3,91.6z"/>
	</g>
	<g>
		<path class="st8" d="M466.3,101c-22.9,0.3-42.7,15.3-49.4,37.3c-6.7,21.8,0.4,46,17.8,60.6c17.5,14.7,43.7,17.7,63,4.6
			c19-12.9,27.6-37.2,22.1-59.3c-6.2-25.1-28.8-42.9-54.6-43.2c-2.2,0-2.2-1.8-1.2-3.2c1.4-1.8,4.4-2.4,6.5-2.4
			c25.5,0.3,49.1,16.4,57.2,40.9c8.2,24.6-1,51.7-21.4,67.4c-20.4,15.6-49.3,18.4-71.7,5.4c-22.6-13.1-34.2-40.3-28-65.7
			c7-28.4,34-47.7,62.8-48.1C475.9,95.4,469.9,101,466.3,101z"/>
		<path class="st8" d="M275.4,102.3c-22.6,0.3-43.3,13.6-50.3,35.5c-6.9,21.8,1.1,46.1,18.8,60.3c17.7,14.2,43.6,16.7,63.3,4.8
			c19.6-11.9,28.5-35.9,22.8-58C323.5,120.3,300.8,102.6,275.4,102.3c-4.7-0.1,0.2-8.2,3.5-8.2c25.8,0.3,49.3,16.5,57.3,41.4
			c7.9,24.7-1.1,52.3-21,68.6c-20.1,16.5-48.8,19.6-71.3,5.9c-22.1-13.4-32.9-40.4-27-65.5c6.7-28.5,32.7-50.1,62.1-50.4
			C283.5,94.1,278.6,102.3,275.4,102.3z"/>
		<path class="st8" d="M431.9,63.5c-32.2,0-64.3,0-96.5,0c-4.5,0-9,0-13.5,0c0.7-0.4,1.4-0.8,2.1-1.1c-12.4,28-24.8,56-37.2,84.1
			c-1.8,4-3.6,8.1-5.4,12.1c-2.2-1.8-4.5-3.6-6.7-5.3c27.1,0,54.1,0,81.2,0c0.5,0,1.4-0.2,1.8,0c1.3,0.5-1.1-0.4-1.1,0.5
			c0-0.5,1.8-1.9,2.1-2.2c3.9-4.1,7.7-8.2,11.6-12.3c12.2-12.9,24.3-25.8,36.5-38.8c8.4-8.9,16.8-17.9,25.2-26.8
			c-0.2,0.7-0.3,1.4-0.5,2.1c-2.1-5.4-4.3-10.7-6.4-16.1c-1.7-4.4,7.6-2.1,8.8,1.1c2.1,5.4,4.3,10.7,6.4,16.1
			c0.3,0.8,0.1,1.5-0.5,2.1c-19.5,20.7-38.9,41.4-58.4,62c-4.4,4.7-8.8,9.4-13.2,14c-1.7,1.8-3.2,4.2-5.8,4.6c-4.5,0.6-9.5,0-14,0
			c-8.7,0-17.3,0-26,0c-14.4,0-28.8,0-43.2,0c-2.2,0-8.1-2.1-6.7-5.3c12.4-28,24.8-56,37.2-84.1c1.8-4,3.6-8.1,5.4-12.1
			c0.3-0.7,1.4-1.1,2.1-1.1c32.2,0,64.3,0,96.5,0c4.5,0,9,0,13.5,0c2.2,0,5.1,0.9,6.3,3C434.5,61.6,434.2,63.5,431.9,63.5z"/>
		<path class="st8" d="M462.3,156.4c-8-20.1-16-40.2-24-60.2c-4.2-10.6-8.4-21.2-12.6-31.8c-1.7-4.3-3.4-8.6-5.7-12.3
			c-9.3-15.2-24.2-23.6-42.1-23.8c-2.7,0-6.4-1.7-7.2-4.5c-0.8-2.8,1.6-4.2,4.1-4.2c27.1,0.3,50.9,16.2,60.8,41.4
			C444.6,84,453.8,107,463,130c3.5,8.9,7,17.7,10.6,26.6C475.9,162.6,464.1,161,462.3,156.4L462.3,156.4z"/>
		<path class="st8" d="M355.8,157.4c-13.3-31.2-26.6-62.4-39.9-93.5c-2.5-5.9-5-11.7-7.6-17.5c-0.8-1.8,8.5-4.5,9.6-1.9
			c13.7,31.8,27.2,63.7,40.8,95.5c2.2,5.2,4.4,10.4,6.6,15.5C366.2,157.3,356.9,160,355.8,157.4L355.8,157.4z"/>
		<path class="st8" d="M345.7,48.5c-20.1,0-40.1,0-60.2,0c-2.4,0-6.6-0.5-7.9-2.9c-1.2-2.3,0.9-3.4,3-3.4c20.1,0,40.1,0,60.2,0
			c2.4,0,6.6,0.5,7.9,2.9C350,47.4,347.9,48.5,345.7,48.5L345.7,48.5z"/>
	</g>
</g>
</svg>
